<svg width="381" height="403" viewBox="0 0 381 403" fill="none" xmlns="http://www.w3.org/2000/svg">
<path d="M378 401.5L379.5 401.5L379.5 400L379.5 98.4589L379.5 98.0817L379.322 97.7493L378 98.4589C379.322 97.7493 379.321 97.7484 379.32 97.7473L379.319 97.7439L379.313 97.7336L379.294 97.6983C379.277 97.6684 379.254 97.6255 379.223 97.5703C379.161 97.4599 379.07 97.2998 378.949 97.0936C378.708 96.6812 378.348 96.0842 377.865 95.3308C376.9 93.8242 375.442 91.6909 373.46 89.1566C369.497 84.0894 363.428 77.4098 354.988 70.9312C338.086 57.9569 311.718 45.8273 273.858 49.01C255.024 50.5931 239.926 53.9129 226.512 57.0039C225.632 57.2066 224.76 57.4082 223.894 57.6083C211.542 60.4638 200.625 62.9874 189.299 63.6576C165.231 65.0817 139.086 58.1377 94.0419 27.016C94.026 27.0032 94.0064 26.9875 93.9831 26.969C93.9152 26.915 93.8163 26.837 93.6863 26.7367C93.4265 26.5362 93.043 26.2464 92.537 25.8804C91.5251 25.1484 90.0235 24.1115 88.0428 22.8741C84.0818 20.3994 78.2034 17.122 70.4944 13.8787C55.0736 7.39087 32.332 1.0416 2.97525 1.52609L1.5 1.55042L1.5 3.02588L1.50003 400L1.50003 401.5L3.00003 401.5L378 401.5Z" fill="white" stroke="#00AA5B" stroke-width="3"/>
</svg>
