<svg width="8" height="8" viewBox="0 0 8 8" fill="none" xmlns="http://www.w3.org/2000/svg">
<path d="M7.81878 3.6477C7.98276 3.48105 8.04054 3.23662 7.96987 3.00953C7.89921 2.78244 7.71478 2.62023 7.48858 2.58601L5.50963 2.28604C5.47097 2.28026 5.43719 2.25493 5.41986 2.21804L4.53505 0.347083C4.43328 0.132878 4.2284 0 3.99953 0C3.77066 0 3.56579 0.132878 3.46491 0.347083L2.57965 2.21804C2.56232 2.25493 2.52854 2.28026 2.48988 2.28604L0.510931 2.58645C0.284727 2.62067 0.100298 2.78288 0.0296367 3.00998C-0.0410242 3.23707 0.0167488 3.48149 0.180735 3.64815L1.61262 5.10447C1.64062 5.13291 1.6535 5.17424 1.64684 5.21468L1.30864 7.2714C1.26998 7.5065 1.36108 7.73981 1.54596 7.88024C1.73083 8.02068 1.9717 8.0389 2.17391 7.9278L3.94398 6.95676C3.97865 6.93765 4.02042 6.93765 4.05508 6.95676L5.82516 7.9278C5.91315 7.97535 6.00826 7.99934 6.10336 7.99934C6.22646 7.99934 6.34867 7.9589 6.45356 7.8798C6.63843 7.73937 6.72953 7.50605 6.69087 7.27096L6.35267 5.21424C6.34601 5.1738 6.3589 5.13247 6.38689 5.10403L7.81878 3.6477Z" fill="#EE9400"/>
</svg>
